<?xml version="1.0"?>
<svg xmlns="http://www.w3.org/2000/svg" xmlns:xlink="http://www.w3.org/1999/xlink" version="1.1" id="Capa_1" x="0px" y="0px" viewBox="0 0 512 512" style="enable-background:new 0 0 512 512;" xml:space="preserve" width="512px" height="512px" class=""><g><g>
	<g>
		<g>
			<path d="M286.5,141h50c8.284,0,15-6.716,15-15s-6.716-15-15-15h-50c-8.284,0-15,6.716-15,15S278.216,141,286.5,141z" data-original="#000000" class="active-path" data-old_color="#00C6FF" fill="#FFFFFF"/>
			<path d="M497,51c-11.077,0-476.315,0-482,0C6.716,51,0,57.716,0,66c0,17.56,0,361.681,0,380c0,8.284,6.716,15,15,15h482     c8.284,0,15-6.716,15-15c0-11.41,0-368.617,0-380C512,57.716,505.284,51,497,51z M30,81h81v30H30V81z M70,431H30V251h40V431z      M70,221H30v-20h40V221z M207.333,431H100V251h107.333V431z M207.333,221H100v-20h107.333V221z M344.667,431H237.333V251h107.334     V431z M344.667,221H237.333v-20h107.334V221z M482,431H374.667V251H482V431z M482,221H374.667v-20H482V221z M482,171H30v-30h96     c8.284,0,15-6.716,15-15V81h341V171z" data-original="#000000" class="active-path" data-old_color="#00C6FF" fill="#FFFFFF"/>
			<path d="M397,141h50c8.284,0,15-6.716,15-15s-6.716-15-15-15h-50c-8.284,0-15,6.716-15,15S388.716,141,397,141z" data-original="#000000" class="active-path" data-old_color="#00C6FF" fill="#FFFFFF"/>
			<path d="M176,141h50c8.284,0,15-6.716,15-15s-6.716-15-15-15h-50c-8.284,0-15,6.716-15,15S167.716,141,176,141z" data-original="#000000" class="active-path" data-old_color="#00C6FF" fill="#FFFFFF"/>
		</g>
	</g>
</g></g> </svg>
